HIERARCHY
ROOT Root
{
  OFFSET 11.0008 11.8871 -7.89242
  CHANNELS 6 Xposition Yposition Zposition Zrotation Xrotation Yrotation
  JOINT Spine
  {
    OFFSET 5.3114 0 0
    CHANNELS 3 Zrotation Xrotation Yrotation
    JOINT Spine1
    {
      OFFSET 2.79004 0 0
      CHANNELS 3 Zrotation Xrotation Yrotation
      JOINT Neck
      {
        OFFSET 1.43377 0 0
        CHANNELS 3 Zrotation Xrotation Yrotation
        JOINT Head
        {
          OFFSET 1.86043 0 0
          CHANNELS 3 Zrotation Xrotation Yrotation
          End Site
          {
            OFFSET 0 0 0
          }
        }
      }
      JOINT LeftArm
      {
        OFFSET 0.0387506 0 2.55754
        CHANNELS 3 Zrotation Xrotation Yrotation
        JOINT LeftForeArm
        {
          OFFSET 4.24845 0 0
          CHANNELS 3 Zrotation Xrotation Yrotation
          JOINT LeftHand
          {
            OFFSET 4.01008 0 0
            CHANNELS 3 Zrotation Xrotation Yrotation
            End Site
            {
              OFFSET 0 0 0
            }
          }
        }
      }
      JOINT RightArm
      {
        OFFSET 0.0387506 0 -2.55754
        CHANNELS 3 Zrotation Xrotation Yrotation
        JOINT RightForeArm
        {
          OFFSET -4.24845 0 0
          CHANNELS 3 Zrotation Xrotation Yrotation
          JOINT RightHand
          {
            OFFSET -4.01009 0 0
            CHANNELS 3 Zrotation Xrotation Yrotation
            End Site
            {
              OFFSET 0 0 0
            }
          }
        }
      }
    }
  }
  JOINT LeftUpLeg
  {
    OFFSET -1.23318 0 2.05692
    CHANNELS 3 Zrotation Xrotation Yrotation
    JOINT LeftLeg
    {
      OFFSET 5.46397 0 0
      CHANNELS 3 Zrotation Xrotation Yrotation
      JOINT LeftFoot
      {
        OFFSET 4.68898 0 0
        CHANNELS 3 Zrotation Xrotation Yrotation
        End Site
        {
          OFFSET 0 0 0
        }
      }
    }
  }
  JOINT RightUpLeg
  {
    OFFSET -1.24454 0 -2.05007
    CHANNELS 3 Zrotation Xrotation Yrotation
    JOINT RightLeg
    {
      OFFSET -5.46397 0 0
      CHANNELS 3 Zrotation Xrotation Yrotation
      JOINT RightFoot
      {
        OFFSET -4.68901 0 0
        CHANNELS 3 Zrotation Xrotation Yrotation
        End Site
        {
          OFFSET 0 0 0
        }
      }
    }
  }
}
MOTION
Frames:	19
Frame Time:	0.00833333
19.1859 12.2011 2.88389 99.6492 4.02361 -5.42997 -0.229569 -1.10752 -1.99574 5.8375 -0.231881 2.31739 -17.7738 -2.03058 -7.12599 23.4658 -3.20655 12.8236 -35.0777 -37.8864 -149.612 52.0139 9.16869 28.6661 -2.62598 -27.6399 173.809 164.041 -25.0354 -140.941 50.8506 8.67109 28.1224 0.388309 4.43633 174.447 -0.311664 1.85081 177.364 -7.14559 -0.654374 -0.924456 24.8697 -12.7893 -176.718 92.4357 0.798649 172.699 -83.1812 -1.24599 -3.31627 -10.4588 10.877 178.692 
19.1558 12.196 2.88729 99.7188 3.99122 -5.41259 -0.234058 -1.17149 -1.88671 5.73991 -0.250983 2.3251 -18.1942 -2.03405 -7.07171 23.7471 -3.2188 12.7552 -35.6157 -38.0801 -149.133 52.2276 9.26151 28.765 -2.66155 -27.9578 173.792 163.366 -25.4371 -140.39 51.297 8.86127 28.3329 0.367027 4.19419 174.449 -0.144926 1.84324 177.328 -6.9751 -0.654895 -0.924745 24.9172 -12.759 -176.702 92.4823 0.506871 172.538 -83.0282 -1.22996 -3.31014 -10.6367 10.6475 178.684 
19.1256 12.1906 2.89006 99.7927 3.94399 -5.40927 -0.224944 -1.22402 -1.77214 5.61928 -0.266037 2.35437 -18.6707 -2.04528 -7.01174 24.1122 -3.24289 12.6754 -36.1075 -38.259 -148.645 52.4485 9.35776 28.8667 -2.7039 -28.3338 173.772 162.708 -25.8497 -139.829 51.7236 9.04698 28.5345 0.345871 3.95333 174.45 -0.0387255 1.84985 177.311 -6.93241 -0.657991 -0.925267 25.0166 -12.7304 -176.68 92.5334 0.234123 172.357 -82.9032 -1.21281 -3.30493 -10.8237 10.3755 178.675 
19.0952 12.1851 2.89237 99.8729 3.88701 -5.41663 -0.204871 -1.26904 -1.65237 5.47918 -0.278457 2.39849 -19.1986 -2.06279 -6.94742 24.5538 -3.27569 12.5896 -36.5652 -38.4256 -148.152 52.6698 9.45464 28.9682 -2.7512 -28.7508 173.75 162.059 -26.2723 -139.265 52.1326 9.22872 28.7274 0.3256 3.72243 174.452 0.0209409 1.85971 177.309 -6.98018 -0.662934 -0.926002 25.159 -12.7033 -176.652 92.5861 -0.0281464 172.161 -82.809 -1.19439 -3.30072 -11.0135 10.0659 178.665 
19.0645 12.1791 2.89442 99.9692 3.83416 -5.42739 -0.189475 -1.31889 -1.53564 5.32595 -0.29197 2.45586 -19.7399 -2.08385 -6.87694 25.0069 -3.31416 12.4978 -37.0131 -38.5809 -147.672 52.8801 9.54699 29.0645 -2.79575 -29.1404 173.728 161.415 -26.7123 -138.69 52.5129 9.39953 28.9065 0.303713 3.47294 174.453 0.0323438 1.88232 177.313 -7.09587 -0.669115 -0.926993 25.3175 -12.6542 -176.633 92.6327 -0.281242 171.969 -82.7375 -1.17568 -3.29723 -11.2023 9.74176 178.653 
19.0335 12.1728 2.89645 100.091 3.79946 -5.43425 -0.194322 -1.38593 -1.43016 5.16592 -0.310303 2.52486 -20.2564 -2.10571 -6.79848 25.4064 -3.35528 12.4 -37.4758 -38.7259 -147.221 53.068 9.62966 29.1506 -2.82961 -29.4341 173.711 160.77 -27.1767 -138.101 52.8534 9.55253 29.0667 0.27771 3.17631 174.455 -0.00624071 1.92718 177.317 -7.25689 -0.675922 -0.928285 25.4649 -12.5596 -176.641 92.6656 -0.526531 171.802 -82.6809 -1.15768 -3.29417 -11.3862 9.42593 178.642 
19.0022 12.1658 2.89844 100.243 3.79216 -5.43466 -0.223356 -1.48065 -1.34134 4.99907 -0.336242 2.60952 -20.7523 -2.1289 -6.7071 25.7587 -3.39882 12.2926 -37.9541 -38.8529 -146.804 53.2363 9.70402 29.2274 -2.8494 -29.6044 173.701 160.147 -27.6687 -137.479 53.1583 9.69036 29.2094 0.244834 2.80095 174.457 -0.115567 1.99824 177.319 -7.49844 -0.684108 -0.930105 25.6087 -12.395 -176.685 92.6888 -0.768086 171.669 -82.6435 -1.13955 -3.29153 -11.5909 9.07807 178.632 
18.9706 12.1582 2.90031 100.417 3.80299 -5.43271 -0.268271 -1.59405 -1.26373 4.82265 -0.367199 2.70921 -21.2431 -2.15446 -6.60525 26.0904 -3.44622 12.1767 -38.438 -38.9649 -146.413 53.3893 9.77197 29.2968 -2.85954 -29.691 173.696 159.544 -28.1822 -136.83 53.4316 9.81545 29.3363 0.207125 2.37009 174.459 -0.287966 2.08997 177.324 -7.81882 -0.693694 -0.932358 25.7588 -12.1791 -176.755 92.705 -1.00405 171.559 -82.6274 -1.12112 -3.28944 -11.8094 8.70144 178.622 
18.9386 12.1505 2.90211 100.613 3.81807 -5.43108 -0.326263 -1.70929 -1.18925 4.63893 -0.398839 2.81536 -21.7078 -2.18044 -6.5022 26.3674 -3.4969 12.0598 -38.9355 -39.0793 -146.042 53.5178 9.82921 29.355 -2.86379 -29.7261 173.694 158.917 -28.7113 -136.184 53.662 9.92074 29.4422 0.169279 1.93735 174.46 -0.482511 2.19761 177.329 -8.14012 -0.70297 -0.934604 25.8921 -11.9528 -176.834 92.7045 -1.22678 171.457 -82.6211 -1.1044 -3.28785 -11.9895 8.38443 178.611 
18.9063 12.1429 2.90391 100.825 3.82356 -5.43242 -0.394561 -1.8095 -1.10984 4.45016 -0.426834 2.91938 -22.1256 -2.20487 -6.40721 26.5553 -3.55028 11.949 -39.4539 -39.2132 -145.686 53.6126 9.87147 29.3981 -2.86595 -29.7421 173.692 158.22 -29.2522 -135.574 53.8384 9.99916 29.5219 0.135976 1.55636 174.461 -0.658262 2.31638 177.333 -8.38443 -0.71023 -0.936405 25.9848 -11.7572 -176.908 92.6778 -1.42865 171.346 -82.6135 -1.09138 -3.28674 -12.0791 8.21539 178.596 
18.8735 12.1353 2.90585 101.055 3.81558 -5.4357 -0.472722 -1.89132 -1.02721 4.24818 -0.450437 3.02284 -22.4822 -2.2284 -6.31964 26.6387 -3.60709 11.8454 -39.9742 -39.3783 -145.336 53.6748 9.89915 29.4264 -2.8667 -29.7439 173.692 157.434 -29.8076 -135.013 53.9467 10.0427 29.5674 0.109171 1.24961 174.462 -0.793391 2.45502 177.332 -8.50934 -0.714471 -0.937532 26.0139 -11.6039 -176.975 92.632 -1.60875 171.222 -82.5872 -1.08319 -3.28546 -12.0575 8.23475 178.578 
18.8403 12.1276 2.90786 101.302 3.80164 -5.44009 -0.562194 -1.96337 -0.94436 4.0347 -0.471821 3.12903 -22.7916 -2.25167 -6.23557 26.638 -3.66734 11.7453 -40.4991 -39.5632 -144.998 53.7082 9.9141 29.4417 -2.86409 -29.7154 173.693 156.584 -30.3806 -134.481 53.997 10.0575 29.5836 0.0861188 0.985756 174.463 -0.913345 2.61273 177.329 -8.5636 -0.716788 -0.938255 25.9974 -11.471 -177.043 92.5692 -1.77076 171.093 -82.553 -1.07857 -3.28425 -11.9548 8.38976 178.559 
18.8067 12.12 2.90966 101.569 3.78481 -5.44855 -0.663033 -2.02673 -0.855213 3.82671 -0.49104 3.23195 -23.0756 -2.27277 -6.15941 26.5727 -3.72942 11.6496 -41.0684 -39.7509 -144.683 53.708 9.91413 29.4416 -2.85806 -29.6579 173.695 155.694 -30.9682 -133.962 54.014 10.0572 29.5844 0.0644526 0.737737 174.463 -1.04813 2.77049 177.329 -8.60608 -0.718612 -0.938887 25.9733 -11.3485 -177.108 92.4716 -1.91405 170.965 -82.5417 -1.07591 -3.28436 -11.7941 8.62902 178.535 
18.7726 12.1127 2.91095 101.856 3.7681 -5.46405 -0.775266 -2.08249 -0.75367 3.64117 -0.508147 3.32563 -23.3559 -2.2898 -6.09553 26.4627 -3.79171 11.5589 -41.7228 -39.9248 -144.406 53.6694 9.89706 29.424 -2.84851 -29.5726 173.7 154.791 -31.5667 -133.437 54.0227 10.056 29.5838 0.041805 0.478485 174.463 -1.22781 2.90927 177.336 -8.69563 -0.72138 -0.939739 25.9795 -11.2268 -177.167 92.3217 -2.03793 170.841 -82.5839 -1.07359 -3.28707 -11.5984 8.9011 178.506 
18.7379 12.1053 2.91154 102.169 3.75352 -5.48727 -0.907008 -2.13516 -0.639011 3.48367 -0.524382 3.41069 -23.6348 -2.30208 -6.04293 26.2983 -3.85502 11.4666 -42.4712 -40.0797 -144.168 53.586 9.8598 29.3861 -2.83368 -29.445 173.707 153.879 -32.1821 -132.898 54.0322 10.0589 29.5871 0.0191739 0.219452 174.463 -1.46534 3.02791 177.351 -8.84382 -0.725421 -0.94088 26.0219 -11.1091 -177.217 92.105 -2.14105 170.722 -82.6953 -1.07221 -3.29321 -11.3366 9.23335 178.467 
18.7026 12.0979 2.91164 102.505 3.73906 -5.51665 -1.05555 -2.18274 -0.514183 3.34478 -0.539309 3.48957 -23.902 -2.31069 -6.00001 26.074 -3.91978 11.3746 -43.2936 -40.2255 -143.964 53.4619 9.8043 29.3299 -2.81423 -29.2795 173.716 152.948 -32.8143 -132.354 54.0284 10.058 29.5864 -0.00272377 -0.0311488 174.463 -1.74309 3.13524 177.37 -9.02062 -0.729988 -0.942149 26.0817 -10.9987 -177.261 91.8346 -2.22418 170.607 -82.8569 -1.07229 -3.30194 -11.0083 9.63948 178.42 
18.667 12.0912 2.91151 102.854 3.72186 -5.55187 -1.2047 -2.2166 -0.378598 3.21896 -0.550472 3.55903 -24.1602 -2.31631 -5.97022 25.8155 -3.98388 11.2966 -44.1876 -40.3681 -143.794 53.3085 9.73593 29.2602 -2.79374 -29.1052 173.726 151.995 -33.45 -131.814 54.0014 10.0477 29.5758 -0.0266733 -0.305246 174.463 -2.04529 3.22729 177.398 -9.22256 -0.734898 -0.943512 26.1595 -10.8856 -177.303 91.5334 -2.28993 170.494 -83.0477 -1.07209 -3.312 -10.6835 10.0477 178.373 
18.6312 12.0857 2.91143 103.206 3.69906 -5.59261 -1.33839 -2.22813 -0.231672 3.10069 -0.555412 3.61582 -24.4123 -2.31963 -5.957 25.5486 -4.04519 11.2461 -45.1506 -40.513 -143.662 53.1372 9.66006 29.182 -2.77573 -28.9517 173.735 151.015 -34.0762 -131.288 53.9414 10.022 29.5496 -0.055461 -0.634766 174.463 -2.35613 3.30006 177.437 -9.44615 -0.739969 -0.944935 26.2558 -10.7597 -177.346 91.2246 -2.34087 170.382 -83.2468 -1.06987 -3.32214 -10.4329 10.3862 178.335 
18.5952 12.0815 2.91141 103.563 3.67119 -5.6395 -1.45776 -2.21184 -0.069681 2.99656 -0.552466 3.6557 -24.6642 -2.32051 -5.96266 25.2705 -4.10307 11.2307 -46.2254 -40.6513 -143.596 52.9403 9.57334 29.0918 -2.75545 -28.7778 173.745 149.999 -34.6887 -130.776 53.8432 9.97813 29.5056 -0.0903731 -1.03442 174.462 -2.68835 3.35054 177.489 -9.7171 -0.745983 -0.946619 26.3922 -10.6089 -177.394 90.9017 -2.37628 170.275 -83.4618 -1.06486 -3.3326 -10.2809 10.6328 178.307 
